<svg width="20" height="20" xmlns="http://www.w3.org/2000/svg">
  <symbol id='save' viewBox="0 0 10 10" stroke-width="1" fill="none">
    <path d="m1,7 0,2 8,0 0,-2"/>
    <path d="m5,2 0,6"/>
    <path d="m3,6 2,2 2,-2"/>
  </symbol>
  <symbol id='author' viewBox="0 0 20 20">
    <circle cx="10" cy="6" r="6"/>
    <path d="m 0,20 c 0,-3 2,-7 4,-9 3,3 9,3 12,0 2,2 4,6 4,9 z"/>
  </symbol>
  <symbol id='journal' viewBox="0 0 20 20">
    <path d="M2 1.5v17A1.5 1.5 0 0 0 3.5 20H5V0H3.5A1.5 1.5 0 0 0 2 1.5zM16 0H6v20h10a2 2 0 0 0 2-2V2a2 2 0 0 0-2-2zm-3 8H8V7h5zm3-2H8V5h8z"/>
  </symbol>
</svg>